<?xml version="1.0" standalone="no"?>
<!DOCTYPE svg PUBLIC "-//W3C//DTD SVG 1.1//EN"
  "http://www.w3.org/Graphics/SVG/1.1/DTD/svg11.dtd">
<!-- Created with matplotlib (http://matplotlib.sourceforge.net/) -->
<svg width="720" height="144" viewBox="0 0 720 144"
   xmlns="http://www.w3.org/2000/svg"
   xmlns:xlink="http://www.w3.org/1999/xlink"
   version="1.1"
   id="svg1">
<g id="figure1">
<polygon style="fill: #ffffff; stroke: #ffffff; stroke-width: 1.000000; stroke-linejoin: miter; stroke-linecap: square;  opacity: 1.000000; " points = "0.000000,144.000000 0.000000,0.000000 720.000000,0.000000 720.000000,144.000000"/>
<g id="axes1">
<polygon style="fill: #ffffff; stroke: #000000; stroke-width: 1.000000; stroke-linejoin: miter; stroke-linecap: square;  opacity: 1.000000; " points = "90.000000,129.600000 90.000000,14.400000 648.000000,14.400000 648.000000,129.600000"/>
<defs>
    <clipPath id="667498303">
    <rect x="90.000000" y="14.400000" width="558.000000" height="115.200000"
    style="stroke: gray; fill: none;"/>
    </clipPath>
</defs>
<path style="fill: none; stroke: #0000ff; stroke-width: 1.000000; stroke-linejoin: miter; stroke-linecap: square;  opacity: 1.000000; clip-path:url(#667498303);" d="M 90.000000,66.360037 L 92.179688,67.921346 L 94.359375,69.982563 L 96.539062,72.390887 L 98.718750,74.959457 L 100.898438,77.484221 L 103.078125,79.762978 L 105.257812,81.614282 L 107.437500,82.893701 L 109.617188,83.504674 L 111.796875,83.402906 L 113.976562,82.595740 L 116.156250,81.138163 L 118.335938,79.126167 L 120.515625,76.688140 L 122.695312,73.974985 L 124.875000,71.149174 L 127.054688,68.373290 L 129.234375,65.799131 L 131.414062,63.558107 L 133.593750,61.753261 L 135.773438,60.453936 L 137.953125,59.694833 L 140.132812,59.479670 L 142.312500,59.787049 L 144.492188,60.576341 L 146.671875,61.794162 L 148.851562,63.382262 L 151.031250,65.284853 L 153.210938,67.452065 L 155.390625,69.838527 L 157.570312,72.398977 L 159.750000,75.083096 L 161.929688,77.830692 L 164.109375,80.567627 L 166.289062,83.202536 L 168.468750,85.624217 L 170.648438,87.700732 L 172.828125,89.283190 L 175.007812,90.216835 L 177.187500,90.358100 L 179.367188,89.592333 L 181.546875,87.847523 L 183.726562,85.103825 L 185.906250,81.401075 L 188.085938,76.845168 L 190.265625,71.612290 L 192.445312,65.948420 L 194.625000,60.160625 L 196.804688,54.598488 L 198.984375,49.627420 L 201.164062,45.598041 L 203.343750,42.817030 L 205.523438,41.523786 L 207.703125,41.874069 L 209.882812,43.929945 L 212.062500,47.655573 L 214.242188,52.917946 L 216.421875,59.491368 L 218.601562,67.065961 L 220.781250,75.261853 L 222.960938,83.649057 L 225.140625,91.770096 L 227.320312,99.162522 L 229.500000,105.381643 L 231.679688,110.025236 L 233.859375,112.759903 L 236.039062,113.346199 L 238.218750,111.659446 L 240.398438,107.704194 L 242.578125,101.621236 L 244.757812,93.685931 L 246.937500,84.296146 L 249.117188,73.949800 L 251.296875,63.214901 L 253.476562,52.695285 L 255.656250,42.993953 L 257.835938,34.676445 L 260.015625,28.237346 L 262.195312,24.071408 L 264.375000,22.449572 L 266.554688,23.501253 L 268.734375,27.205591 L 270.914062,33.393293 L 273.093750,41.757385 L 275.273438,51.869557 L 277.453125,63.200871 L 279.632812,75.147863 L 281.812500,87.064206 L 283.992188,98.295768 L 286.171875,108.216301 L 288.351562,116.261911 L 290.531250,121.963194 L 292.710938,124.974051 L 294.890625,125.096418 L 297.070312,122.298631 L 299.250000,116.722739 L 301.429688,108.677692 L 303.609375,98.619732 L 305.789062,87.123297 L 307.968750,74.845726 L 310.148438,62.488155 L 312.328125,50.753551 L 314.507812,40.303770 L 316.687500,31.719940 L 318.867188,25.469490 L 321.046875,21.880405 L 323.226562,21.123017 L 325.406250,23.200398 L 327.585938,27.948526 L 329.765625,35.047209 L 331.945312,44.041887 L 334.125000,54.374543 L 336.304688,65.420210 L 338.484375,76.525174 L 340.664062,87.044558 L 342.843750,96.379163 L 345.023438,104.011908 L 347.203125,109.542263 L 349.382812,112.714086 L 351.562500,113.430662 L 353.742188,111.754096 L 355.921875,107.892516 L 358.101562,102.180478 L 360.281250,95.054191 L 362.460938,87.020537 L 364.640625,78.621230 L 366.820312,70.396059 L 369.000000,62.847727 L 371.179688,56.408729 L 373.359375,51.411906 L 375.539062,48.068086 L 377.718750,46.453938 L 379.898438,46.512031 L 382.078125,48.063566 L 384.257812,50.832221 L 386.437500,54.475976 L 388.617188,58.622454 L 390.796875,62.903285 L 392.976562,66.984791 L 395.156250,70.593437 L 397.335938,73.534801 L 399.515625,75.704606 L 401.695312,77.089655 L 403.875000,77.757924 L 406.054688,77.841458 L 408.234375,77.517478 L 410.414062,76.989125 L 412.593750,76.463555 L 414.773438,76.127069 L 416.953125,76.121701 L 419.132812,76.528987 L 421.312500,77.363135 L 423.492188,78.572055 L 425.671875,80.044306 L 427.851562,81.621085 L 430.031250,83.111608 L 432.210938,84.308965 L 434.390625,85.005841 L 436.570312,85.012863 L 438.750000,84.180222 L 440.929688,82.418544 L 443.109375,79.714978 L 445.289062,76.142474 L 447.468750,71.859957 L 449.648438,67.101943 L 451.828125,62.159430 L 454.007812,57.355570 L 456.187500,53.019144 L 458.367188,49.458908 L 460.546875,46.942052 L 462.726562,45.677706 L 464.906250,45.803805 L 467.085938,47.376734 L 469.265625,50.365173 L 471.445312,54.648744 L 473.625000,60.021470 L 475.804688,66.201184 L 477.984375,72.846123 L 480.164062,79.578351 L 482.343750,86.011707 L 484.523438,91.779387 L 486.703125,96.556248 L 488.882812,100.075887 L 491.062500,102.145770 L 493.242188,102.659618 L 495.421875,101.602896 L 497.601562,99.050781 L 499.781250,95.160662 L 501.960938,90.159383 L 504.140625,84.325549 L 506.320312,77.970899 L 508.500000,71.424891 L 510.679688,65.021709 L 512.859375,59.085867 L 515.039062,53.915299 L 517.218750,49.763913 L 519.398438,46.825901 L 521.578125,45.223759 L 523.757812,45.002156 L 525.937500,46.128702 L 528.117188,48.499940 L 530.296875,51.949698 L 532.476562,56.259017 L 534.656250,61.168866 L 536.835938,66.396137 L 539.015625,71.651873 L 541.195312,76.659512 L 543.375000,81.169766 L 545.554688,84.969967 L 547.734375,87.890119 L 549.914062,89.809800 L 552.093750,90.666889 L 554.273438,90.465408 L 556.453125,89.278248 L 558.632812,87.241467 L 560.812500,84.541230 L 562.992188,81.397824 L 565.171875,78.049393 L 567.351562,74.735289 L 569.531250,71.679286 L 571.710938,69.073649 L 573.890625,67.064749 L 576.070312,65.741225 L 578.250000,65.127713 L 580.429688,65.186548 L 582.609375,65.824575 L 584.789062,66.901102 L 586.968750,68.238673 L 589.148438,69.639365 L 591.328125,70.904586 L 593.507812,71.855655 L 595.687500,72.353852 L 597.867188,72.316984 L 600.046875,71.729055 L 602.226562,70.641996 L 604.406250,69.169273 L 606.585938,67.471744 L 608.765625,65.738839 L 610.945312,64.169618 L 613.125000,62.955635 L 615.304688,62.265307 L 617.484375,62.230731 L 619.664062,62.938284 L 621.843750,64.422372 L 624.023438,66.661181 L 626.203125,69.574160 L 628.382812,73.021920 L 630.562500,76.810703 L 632.742188,80.703965 L 634.921875,84.440755 L 637.101562,87.757127 L 639.281250,90.406154 L 641.460938,92.173961 L 643.640625,92.891967 L 645.820312,92.447755 "/>
<g id="matplotlib.axis1">
<g id="xtick1">
<text style="font-size: 12.000000; font-family: Verdana; font-style: Regular; fill: #000000;" x="81.000000" y="142.600000" >0.0</text>
</g>
<g id="xtick2">
<path style="fill: none; stroke: #000000; stroke-width: 0.500000; stroke-linejoin: miter; stroke-linecap: butt;  opacity: 1.000000; " d="M 201.600000,129.600000 L 201.600000,125.600000"/>
<path style="fill: none; stroke: #000000; stroke-width: 0.500000; stroke-linejoin: miter; stroke-linecap: butt;  opacity: 1.000000; " d="M 201.600000,18.400000 L 201.600000,14.400000"/>
<text style="font-size: 12.000000; font-family: Verdana; font-style: Regular; fill: #000000;" x="192.600000" y="142.600000" >0.2</text>
</g>
<g id="xtick3">
<path style="fill: none; stroke: #000000; stroke-width: 0.500000; stroke-linejoin: miter; stroke-linecap: butt;  opacity: 1.000000; " d="M 313.200000,129.600000 L 313.200000,125.600000"/>
<path style="fill: none; stroke: #000000; stroke-width: 0.500000; stroke-linejoin: miter; stroke-linecap: butt;  opacity: 1.000000; " d="M 313.200000,18.400000 L 313.200000,14.400000"/>
<text style="font-size: 12.000000; font-family: Verdana; font-style: Regular; fill: #000000;" x="303.700000" y="142.600000" >0.4</text>
</g>
<g id="xtick4">
<path style="fill: none; stroke: #000000; stroke-width: 0.500000; stroke-linejoin: miter; stroke-linecap: butt;  opacity: 1.000000; " d="M 424.800000,129.600000 L 424.800000,125.600000"/>
<path style="fill: none; stroke: #000000; stroke-width: 0.500000; stroke-linejoin: miter; stroke-linecap: butt;  opacity: 1.000000; " d="M 424.800000,18.400000 L 424.800000,14.400000"/>
<text style="font-size: 12.000000; font-family: Verdana; font-style: Regular; fill: #000000;" x="415.800000" y="142.600000" >0.6</text>
</g>
<g id="xtick5">
<path style="fill: none; stroke: #000000; stroke-width: 0.500000; stroke-linejoin: miter; stroke-linecap: butt;  opacity: 1.000000; " d="M 536.400000,129.600000 L 536.400000,125.600000"/>
<path style="fill: none; stroke: #000000; stroke-width: 0.500000; stroke-linejoin: miter; stroke-linecap: butt;  opacity: 1.000000; " d="M 536.400000,18.400000 L 536.400000,14.400000"/>
<text style="font-size: 12.000000; font-family: Verdana; font-style: Regular; fill: #000000;" x="527.400000" y="142.600000" >0.8</text>
</g>
<g id="xtick6">
<text style="font-size: 12.000000; font-family: Verdana; font-style: Regular; fill: #000000;" x="639.500000" y="142.600000" >1.0</text>
</g>
</g>
<g id="matplotlib.axis2">
</g>
</g>
</g>
</svg>
