<?xml version="1.0" standalone="no"?>
<!DOCTYPE svg PUBLIC "-//W3C//DTD SVG 1.1//EN"
  "http://www.w3.org/Graphics/SVG/1.1/DTD/svg11.dtd">
<!-- Created with matplotlib (http://matplotlib.sourceforge.net/) -->
<svg width="720" height="144" viewBox="0 0 720 144"
   xmlns="http://www.w3.org/2000/svg"
   xmlns:xlink="http://www.w3.org/1999/xlink"
   version="1.1"
   id="svg1">
<g id="figure1">
<polygon style="fill: #ffffff; stroke: #ffffff; stroke-width: 1.000000; stroke-linejoin: miter; stroke-linecap: square;  opacity: 1.000000; " points = "0.000000,144.000000 0.000000,0.000000 720.000000,0.000000 720.000000,144.000000"/>
<g id="axes1">
<polygon style="fill: #ffffff; stroke: #000000; stroke-width: 1.000000; stroke-linejoin: miter; stroke-linecap: square;  opacity: 1.000000; " points = "90.000000,129.600000 90.000000,14.400000 648.000000,14.400000 648.000000,129.600000"/>
<defs>
    <clipPath id="667498303">
    <rect x="90.000000" y="14.400000" width="558.000000" height="115.200000"
    style="stroke: gray; fill: none;"/>
    </clipPath>
</defs>
<path style="fill: none; stroke: #0000ff; stroke-width: 1.000000; stroke-linejoin: miter; stroke-linecap: square;  opacity: 1.000000; clip-path:url(#667498303);" d="M 90.000000,54.560520 L 92.179688,52.184892 L 94.359375,81.144998 L 96.539062,90.710202 L 98.718750,73.498448 L 100.898438,65.833502 L 103.078125,66.863929 L 105.257812,64.850663 L 107.437500,62.609561 L 109.617188,81.843854 L 111.796875,88.791994 L 113.976562,73.162337 L 116.156250,63.676151 L 118.335938,70.676826 L 120.515625,65.000727 L 122.695312,70.084339 L 124.875000,76.256325 L 127.054688,76.399126 L 129.234375,71.547509 L 131.414062,66.676159 L 133.593750,76.835587 L 135.773438,84.169030 L 137.953125,68.883745 L 140.132812,50.604709 L 142.312500,70.806684 L 144.492188,92.003317 L 146.671875,83.499625 L 148.851562,55.572791 L 151.031250,52.734852 L 153.210938,76.031893 L 155.390625,89.690303 L 157.570312,80.033088 L 159.750000,67.306462 L 161.929688,63.516874 L 164.109375,63.663008 L 166.289062,65.134905 L 168.468750,81.267953 L 170.648438,93.902608 L 172.828125,85.180971 L 175.007812,53.188844 L 177.187500,36.715424 L 179.367188,61.993799 L 181.546875,104.453323 L 183.726562,97.736673 L 185.906250,74.087645 L 188.085938,63.465075 L 190.265625,47.126168 L 192.445312,51.880832 L 194.625000,78.004387 L 196.804688,89.788620 L 198.984375,88.223470 L 201.164062,88.662213 L 203.343750,67.382815 L 205.523438,45.871368 L 207.703125,62.542252 L 209.882812,73.563674 L 212.062500,74.992589 L 214.242188,71.289332 L 216.421875,84.530715 L 218.601562,85.890641 L 220.781250,64.429037 L 222.960938,47.958331 L 225.140625,62.092571 L 227.320312,95.144908 L 229.500000,92.100166 L 231.679688,68.703385 L 233.859375,55.302131 L 236.039062,61.509946 L 238.218750,74.248100 L 240.398438,83.015816 L 242.578125,73.471400 L 244.757812,58.389140 L 246.937500,74.030711 L 249.117188,88.408297 L 251.296875,72.421022 L 253.476562,60.481497 L 255.656250,77.278030 L 257.835938,74.233834 L 260.015625,63.768841 L 262.195312,64.647365 L 264.375000,78.011971 L 266.554688,88.021420 L 268.734375,77.691980 L 270.914062,50.755762 L 273.093750,53.267224 L 275.273438,83.026768 L 277.453125,92.962505 L 279.632812,77.339298 L 281.812500,60.394845 L 283.992188,59.451366 L 286.171875,76.611491 L 288.351562,77.057278 L 290.531250,77.267195 L 292.710938,86.545069 L 294.890625,58.035927 L 297.070312,43.049981 L 299.250000,72.443546 L 301.429688,94.310283 L 303.609375,83.683985 L 305.789062,80.665361 L 307.968750,62.545306 L 310.148438,42.836007 L 312.328125,78.979977 L 314.507812,91.685531 L 316.687500,74.262118 L 318.867188,57.865162 L 321.046875,69.207772 L 323.226562,71.223298 L 325.406250,78.025604 L 327.585938,82.807940 L 329.765625,71.427599 L 331.945312,66.425280 L 334.125000,58.389220 L 336.304688,64.417723 L 338.484375,81.874681 L 340.664062,92.408708 L 342.843750,84.562249 L 345.023438,65.973130 L 347.203125,48.493154 L 349.382812,37.374995 L 351.562500,80.830583 L 353.742188,117.470921 L 355.921875,96.996840 L 358.101562,48.934437 L 360.281250,36.198910 L 362.460938,73.700147 L 364.640625,92.703205 L 366.820312,70.195955 L 369.000000,59.975420 L 371.179688,75.822943 L 373.359375,78.703184 L 375.539062,77.372742 L 377.718750,78.456009 L 379.898438,66.596425 L 382.078125,65.909681 L 384.257812,70.602946 L 386.437500,58.883099 L 388.617188,76.401341 L 390.796875,82.248359 L 392.976562,78.518477 L 395.156250,74.705142 L 397.335938,67.615958 L 399.515625,50.733196 L 401.695312,66.653154 L 403.875000,104.942373 L 406.054688,91.932535 L 408.234375,51.359989 L 410.414062,34.122275 L 412.593750,66.309739 L 414.773438,106.212297 L 416.953125,99.460541 L 419.132812,64.949583 L 421.312500,43.803958 L 423.492188,60.985202 L 425.671875,82.164051 L 427.851562,73.666738 L 430.031250,62.000480 L 432.210938,85.301177 L 434.390625,107.035753 L 436.570312,60.897438 L 438.750000,40.416896 L 440.929688,69.164675 L 443.109375,75.586159 L 445.289062,67.616872 L 447.468750,75.755795 L 449.648438,86.891165 L 451.828125,78.420674 L 454.007812,64.775088 L 456.187500,72.918073 L 458.367188,78.397828 L 460.546875,59.640281 L 462.726562,50.126418 L 464.906250,83.443301 L 467.085938,85.313145 L 469.265625,69.112177 L 471.445312,72.498234 L 473.625000,78.843806 L 475.804688,74.898352 L 477.984375,71.522975 L 480.164062,68.009799 L 482.343750,47.746492 L 484.523438,55.488435 L 486.703125,111.610856 L 488.882812,106.634608 L 491.062500,43.473423 L 493.242188,40.135663 L 495.421875,83.411426 L 497.601562,85.019750 L 499.781250,62.650881 L 501.960938,71.988781 L 504.140625,97.753107 L 506.320312,82.348714 L 508.500000,40.910600 L 510.679688,43.182444 L 512.859375,81.087878 L 515.039062,91.197265 L 517.218750,83.525154 L 519.398438,75.121402 L 521.578125,71.951194 L 523.757812,68.446326 L 525.937500,51.178113 L 528.117188,60.189889 L 530.296875,88.345166 L 532.476562,90.317855 L 534.656250,75.571140 L 536.835938,65.395614 L 539.015625,61.495421 L 541.195312,49.680836 L 543.375000,71.297866 L 545.554688,108.917988 L 547.734375,95.584163 L 549.914062,60.050360 L 552.093750,49.718508 L 554.273438,43.880092 L 556.453125,60.571666 L 558.632812,107.634072 L 560.812500,105.838871 L 562.992188,61.108420 L 565.171875,53.611707 L 567.351562,58.109441 L 569.531250,74.210942 L 571.710938,73.395749 L 573.890625,73.587143 L 576.070312,98.028542 L 578.250000,81.215301 L 580.429688,23.299134 L 582.609375,55.771494 L 584.789062,119.925920 L 586.968750,82.442260 L 589.148438,53.871285 L 591.328125,72.804447 L 593.507812,71.428879 L 595.687500,55.104816 L 597.867188,73.722816 L 600.046875,82.743883 L 602.226562,69.006002 L 604.406250,69.557650 L 606.585938,86.163908 L 608.765625,88.564628 L 610.945312,50.656545 L 613.125000,57.693708 L 615.304688,81.448716 L 617.484375,75.505332 L 619.664062,64.707473 L 621.843750,71.981277 L 624.023438,68.731012 L 626.203125,75.163066 L 628.382812,88.805684 L 630.562500,85.100720 L 632.742188,59.693838 L 634.921875,47.492826 L 637.101562,59.883399 L 639.281250,75.990581 L 641.460938,92.045064 L 643.640625,101.569028 L 645.820312,70.166409 "/>
<g id="matplotlib.axis1">
<g id="xtick1">
<text style="font-size: 12.000000; font-family: Verdana; font-style: Regular; fill: #000000;" x="81.000000" y="142.600000" >0.0</text>
</g>
<g id="xtick2">
<path style="fill: none; stroke: #000000; stroke-width: 0.500000; stroke-linejoin: miter; stroke-linecap: butt;  opacity: 1.000000; " d="M 201.600000,129.600000 L 201.600000,125.600000"/>
<path style="fill: none; stroke: #000000; stroke-width: 0.500000; stroke-linejoin: miter; stroke-linecap: butt;  opacity: 1.000000; " d="M 201.600000,18.400000 L 201.600000,14.400000"/>
<text style="font-size: 12.000000; font-family: Verdana; font-style: Regular; fill: #000000;" x="192.600000" y="142.600000" >0.2</text>
</g>
<g id="xtick3">
<path style="fill: none; stroke: #000000; stroke-width: 0.500000; stroke-linejoin: miter; stroke-linecap: butt;  opacity: 1.000000; " d="M 313.200000,129.600000 L 313.200000,125.600000"/>
<path style="fill: none; stroke: #000000; stroke-width: 0.500000; stroke-linejoin: miter; stroke-linecap: butt;  opacity: 1.000000; " d="M 313.200000,18.400000 L 313.200000,14.400000"/>
<text style="font-size: 12.000000; font-family: Verdana; font-style: Regular; fill: #000000;" x="303.700000" y="142.600000" >0.4</text>
</g>
<g id="xtick4">
<path style="fill: none; stroke: #000000; stroke-width: 0.500000; stroke-linejoin: miter; stroke-linecap: butt;  opacity: 1.000000; " d="M 424.800000,129.600000 L 424.800000,125.600000"/>
<path style="fill: none; stroke: #000000; stroke-width: 0.500000; stroke-linejoin: miter; stroke-linecap: butt;  opacity: 1.000000; " d="M 424.800000,18.400000 L 424.800000,14.400000"/>
<text style="font-size: 12.000000; font-family: Verdana; font-style: Regular; fill: #000000;" x="415.800000" y="142.600000" >0.6</text>
</g>
<g id="xtick5">
<path style="fill: none; stroke: #000000; stroke-width: 0.500000; stroke-linejoin: miter; stroke-linecap: butt;  opacity: 1.000000; " d="M 536.400000,129.600000 L 536.400000,125.600000"/>
<path style="fill: none; stroke: #000000; stroke-width: 0.500000; stroke-linejoin: miter; stroke-linecap: butt;  opacity: 1.000000; " d="M 536.400000,18.400000 L 536.400000,14.400000"/>
<text style="font-size: 12.000000; font-family: Verdana; font-style: Regular; fill: #000000;" x="527.400000" y="142.600000" >0.8</text>
</g>
<g id="xtick6">
<text style="font-size: 12.000000; font-family: Verdana; font-style: Regular; fill: #000000;" x="639.500000" y="142.600000" >1.0</text>
</g>
</g>
<g id="matplotlib.axis2">
</g>
</g>
</g>
</svg>
