<?xml version="1.0" standalone="no"?>
<!DOCTYPE svg PUBLIC "-//W3C//DTD SVG 1.1//EN"
  "http://www.w3.org/Graphics/SVG/1.1/DTD/svg11.dtd">
<!-- Created with matplotlib (http://matplotlib.sourceforge.net/) -->
<svg width="720" height="144" viewBox="0 0 720 144"
   xmlns="http://www.w3.org/2000/svg"
   xmlns:xlink="http://www.w3.org/1999/xlink"
   version="1.1"
   id="svg1">
<g id="figure1">
<polygon style="fill: #ffffff; stroke: #ffffff; stroke-width: 1.000000; stroke-linejoin: miter; stroke-linecap: square;  opacity: 1.000000; " points = "0.000000,144.000000 0.000000,0.000000 720.000000,0.000000 720.000000,144.000000"/>
<g id="axes1">
<polygon style="fill: #ffffff; stroke: #000000; stroke-width: 1.000000; stroke-linejoin: miter; stroke-linecap: square;  opacity: 1.000000; " points = "90.000000,129.600000 90.000000,14.400000 648.000000,14.400000 648.000000,129.600000"/>
<defs>
    <clipPath id="667498303">
    <rect x="90.000000" y="14.400000" width="558.000000" height="115.200000"
    style="stroke: gray; fill: none;"/>
    </clipPath>
</defs>
<path style="fill: none; stroke: #0000ff; stroke-width: 1.000000; stroke-linejoin: miter; stroke-linecap: square;  opacity: 1.000000; clip-path:url(#667498303);" d="M 90.000000,77.409698 L 92.179688,79.771626 L 94.359375,82.974131 L 96.539062,84.266113 L 98.718750,81.142597 L 100.898438,75.252802 L 103.078125,71.282631 L 105.257812,72.547426 L 107.437500,77.761413 L 109.617188,81.366158 L 111.796875,77.650077 L 113.976562,66.089017 L 116.156250,52.764733 L 118.335938,45.856471 L 120.515625,49.530639 L 122.695312,61.377778 L 124.875000,74.509314 L 127.054688,82.316131 L 129.234375,82.489957 L 131.414062,77.411984 L 133.593750,71.222018 L 135.773438,67.033405 L 137.953125,66.706507 L 140.132812,71.249689 L 142.312500,79.383157 L 144.492188,86.762338 L 146.671875,89.322439 L 148.851562,87.540908 L 151.031250,85.350315 L 153.210938,84.523172 L 155.390625,82.119870 L 157.570312,74.520534 L 159.750000,62.738008 L 161.929688,52.523325 L 164.109375,49.394140 L 166.289062,53.702880 L 168.468750,60.052445 L 170.648438,61.863176 L 172.828125,57.980484 L 175.007812,55.173570 L 177.187500,62.264923 L 179.367188,79.930863 L 181.546875,97.162059 L 183.726562,100.324275 L 185.906250,86.498528 L 188.085938,67.135888 L 190.265625,58.545949 L 192.445312,68.140637 L 194.625000,87.866714 L 196.804688,100.270907 L 198.984375,92.412508 L 201.164062,66.264368 L 203.343750,37.904378 L 205.523438,26.492176 L 207.703125,40.714974 L 209.882812,72.813701 L 212.062500,104.748753 L 214.242188,120.446987 L 216.421875,114.379731 L 218.601562,92.604002 L 220.781250,68.088555 L 222.960938,52.877159 L 225.140625,50.492099 L 227.320312,54.347491 L 229.500000,55.024053 L 231.679688,50.086328 L 233.859375,46.180618 L 236.039062,51.499361 L 238.218750,67.107815 L 240.398438,85.750030 L 242.578125,98.216627 L 244.757812,100.089495 L 246.937500,92.802259 L 249.117188,80.517098 L 251.296875,67.871905 L 253.476562,59.171345 L 255.656250,56.914871 L 257.835938,60.796553 L 260.015625,68.680531 L 262.195312,77.710109 L 264.375000,84.443791 L 266.554688,85.935302 L 268.734375,82.368802 L 270.914062,77.937584 L 273.093750,76.976437 L 275.273438,78.645114 L 277.453125,77.233613 L 279.632812,68.805651 L 281.812500,56.348254 L 283.992188,47.292748 L 286.171875,46.580249 L 288.351562,52.969060 L 290.531250,61.491335 L 292.710938,68.589385 L 294.890625,75.170238 L 297.070312,84.458321 L 299.250000,95.961408 L 301.429688,102.917864 L 303.609375,97.952665 L 305.789062,81.156678 L 307.968750,61.766671 L 310.148438,51.450864 L 312.328125,54.798341 L 314.507812,66.115232 L 316.687500,75.966145 L 318.867188,79.621072 L 321.046875,78.532193 L 323.226562,75.920899 L 325.406250,72.994900 L 327.585938,69.075318 L 329.765625,64.252304 L 331.945312,60.979849 L 334.125000,62.307797 L 336.304688,68.247959 L 338.484375,74.232161 L 340.664062,74.345547 L 342.843750,67.397884 L 345.023438,59.908099 L 347.203125,61.824454 L 349.382812,77.248349 L 351.562500,97.965977 L 353.742188,107.755183 L 355.921875,96.659670 L 358.101562,71.809936 L 360.281250,51.908562 L 362.460938,50.190541 L 364.640625,63.968421 L 366.820312,80.054747 L 369.000000,87.035127 L 371.179688,81.706843 L 373.359375,67.818488 L 375.539062,52.131151 L 377.718750,41.133876 L 379.898438,39.170280 L 382.078125,47.561707 L 384.257812,64.249553 L 386.437500,84.217375 L 388.617188,100.776274 L 390.796875,107.853452 L 392.976562,103.181085 L 395.156250,90.174230 L 397.335938,76.227131 L 399.515625,67.995467 L 401.695312,66.506693 L 403.875000,66.566471 L 406.054688,63.013601 L 408.234375,57.933439 L 410.414062,58.915668 L 412.593750,68.914528 L 414.773438,80.454155 L 416.953125,82.680429 L 419.132812,73.560435 L 421.312500,62.660701 L 423.492188,61.316482 L 425.671875,71.590575 L 427.851562,85.247284 L 430.031250,91.368302 L 432.210938,83.867366 L 434.390625,64.993511 L 436.570312,45.383503 L 438.750000,38.681275 L 440.929688,51.355535 L 443.109375,76.875919 L 445.289062,100.557074 L 447.468750,109.506281 L 449.648438,99.499992 L 451.828125,76.293462 L 454.007812,51.878266 L 456.187500,37.561713 L 458.367188,38.441063 L 460.546875,52.795790 L 462.726562,74.333197 L 464.906250,94.147893 L 467.085938,103.707331 L 469.265625,99.422186 L 471.445312,84.555882 L 473.625000,66.456586 L 475.804688,52.539245 L 477.984375,47.880239 L 480.164062,54.228704 L 482.343750,69.421662 L 484.523438,86.662444 L 486.703125,95.771769 L 488.882812,89.915152 L 491.062500,73.405764 L 493.242188,59.288239 L 495.421875,56.934864 L 497.601562,64.375539 L 499.781250,72.758671 L 501.960938,74.754534 L 504.140625,68.975135 L 506.320312,60.765345 L 508.500000,59.629473 L 510.679688,71.662812 L 512.859375,91.971942 L 515.039062,106.508910 L 517.218750,103.408666 L 519.398438,82.826316 L 521.578125,56.670524 L 523.757812,40.027835 L 525.937500,41.514852 L 528.117188,58.159008 L 530.296875,77.476652 L 532.476562,86.371127 L 534.656250,80.890085 L 536.835938,68.465015 L 539.015625,60.878804 L 541.195312,64.373582 L 543.375000,74.471067 L 545.554688,79.671671 L 547.734375,72.500704 L 549.914062,58.373313 L 552.093750,52.166342 L 554.273438,64.591956 L 556.453125,91.044292 L 558.632812,113.305471 L 560.812500,114.039483 L 562.992188,92.037334 L 565.171875,63.258013 L 567.351562,46.671118 L 569.531250,49.354773 L 571.710938,63.537781 L 573.890625,75.071040 L 576.070312,74.618792 L 578.250000,64.250805 L 580.429688,55.222705 L 582.609375,56.759989 L 584.789062,66.256185 L 586.968750,73.446498 L 589.148438,72.960378 L 591.328125,68.932455 L 593.507812,69.092984 L 595.687500,77.398201 L 597.867188,90.645635 L 600.046875,100.411630 L 602.226562,99.295092 L 604.406250,86.104873 L 606.585938,65.846341 L 608.765625,46.772196 L 610.945312,37.401549 L 613.125000,42.581732 L 615.304688,59.790140 L 617.484375,80.472615 L 619.664062,95.982953 L 621.843750,101.932815 L 624.023438,98.199481 L 626.203125,86.875098 L 628.382812,70.933761 L 630.562500,54.828744 L 632.742188,45.224460 L 634.921875,48.243181 L 637.101562,63.709517 L 639.281250,82.498681 L 641.460938,91.513015 L 643.640625,83.549186 L 645.820312,64.235546 "/>
<g id="matplotlib.axis1">
<g id="xtick1">
<text style="font-size: 12.000000; font-family: Verdana; font-style: Regular; fill: #000000;" x="81.000000" y="142.600000" >0.0</text>
</g>
<g id="xtick2">
<path style="fill: none; stroke: #000000; stroke-width: 0.500000; stroke-linejoin: miter; stroke-linecap: butt;  opacity: 1.000000; " d="M 201.600000,129.600000 L 201.600000,125.600000"/>
<path style="fill: none; stroke: #000000; stroke-width: 0.500000; stroke-linejoin: miter; stroke-linecap: butt;  opacity: 1.000000; " d="M 201.600000,18.400000 L 201.600000,14.400000"/>
<text style="font-size: 12.000000; font-family: Verdana; font-style: Regular; fill: #000000;" x="192.600000" y="142.600000" >0.2</text>
</g>
<g id="xtick3">
<path style="fill: none; stroke: #000000; stroke-width: 0.500000; stroke-linejoin: miter; stroke-linecap: butt;  opacity: 1.000000; " d="M 313.200000,129.600000 L 313.200000,125.600000"/>
<path style="fill: none; stroke: #000000; stroke-width: 0.500000; stroke-linejoin: miter; stroke-linecap: butt;  opacity: 1.000000; " d="M 313.200000,18.400000 L 313.200000,14.400000"/>
<text style="font-size: 12.000000; font-family: Verdana; font-style: Regular; fill: #000000;" x="303.700000" y="142.600000" >0.4</text>
</g>
<g id="xtick4">
<path style="fill: none; stroke: #000000; stroke-width: 0.500000; stroke-linejoin: miter; stroke-linecap: butt;  opacity: 1.000000; " d="M 424.800000,129.600000 L 424.800000,125.600000"/>
<path style="fill: none; stroke: #000000; stroke-width: 0.500000; stroke-linejoin: miter; stroke-linecap: butt;  opacity: 1.000000; " d="M 424.800000,18.400000 L 424.800000,14.400000"/>
<text style="font-size: 12.000000; font-family: Verdana; font-style: Regular; fill: #000000;" x="415.800000" y="142.600000" >0.6</text>
</g>
<g id="xtick5">
<path style="fill: none; stroke: #000000; stroke-width: 0.500000; stroke-linejoin: miter; stroke-linecap: butt;  opacity: 1.000000; " d="M 536.400000,129.600000 L 536.400000,125.600000"/>
<path style="fill: none; stroke: #000000; stroke-width: 0.500000; stroke-linejoin: miter; stroke-linecap: butt;  opacity: 1.000000; " d="M 536.400000,18.400000 L 536.400000,14.400000"/>
<text style="font-size: 12.000000; font-family: Verdana; font-style: Regular; fill: #000000;" x="527.400000" y="142.600000" >0.8</text>
</g>
<g id="xtick6">
<text style="font-size: 12.000000; font-family: Verdana; font-style: Regular; fill: #000000;" x="639.500000" y="142.600000" >1.0</text>
</g>
</g>
<g id="matplotlib.axis2">
</g>
</g>
</g>
</svg>
