<?xml version="1.0" standalone="no"?>
<!DOCTYPE svg PUBLIC "-//W3C//DTD SVG 1.1//EN"
  "http://www.w3.org/Graphics/SVG/1.1/DTD/svg11.dtd">
<!-- Created with matplotlib (http://matplotlib.sourceforge.net/) -->
<svg width="720" height="144" viewBox="0 0 720 144"
   xmlns="http://www.w3.org/2000/svg"
   xmlns:xlink="http://www.w3.org/1999/xlink"
   version="1.1"
   id="svg1">
<g id="figure1">
<polygon style="fill: #ffffff; stroke: #ffffff; stroke-width: 1.000000; stroke-linejoin: miter; stroke-linecap: square;  opacity: 1.000000; " points = "0.000000,144.000000 0.000000,0.000000 720.000000,0.000000 720.000000,144.000000"/>
<g id="axes1">
<polygon style="fill: #ffffff; stroke: #000000; stroke-width: 1.000000; stroke-linejoin: miter; stroke-linecap: square;  opacity: 1.000000; " points = "90.000000,129.600000 90.000000,14.400000 648.000000,14.400000 648.000000,129.600000"/>
<defs>
    <clipPath id="667498303">
    <rect x="90.000000" y="14.400000" width="558.000000" height="115.200000"
    style="stroke: gray; fill: none;"/>
    </clipPath>
</defs>
<path style="fill: none; stroke: #0000ff; stroke-width: 1.000000; stroke-linejoin: miter; stroke-linecap: square;  opacity: 1.000000; clip-path:url(#667498303);" d="M 90.000000,65.446810 L 92.179688,63.808354 L 94.359375,62.319481 L 96.539062,60.978315 L 98.718750,59.781135 L 100.898438,58.723525 L 103.078125,57.801997 L 105.257812,57.015749 L 107.437500,56.368086 L 109.617188,55.866709 L 111.796875,55.522679 L 113.976562,55.348857 L 116.156250,55.358485 L 118.335938,55.563987 L 120.515625,55.975974 L 122.695312,56.602425 L 124.875000,57.447778 L 127.054688,58.511804 L 129.234375,59.788456 L 131.414062,61.264720 L 133.593750,62.919371 L 135.773438,64.721972 L 137.953125,66.632983 L 140.132812,68.605278 L 142.312500,70.586153 L 144.492188,72.519121 L 146.671875,74.346178 L 148.851562,76.011356 L 151.031250,77.464870 L 153.210938,78.666378 L 155.390625,79.586803 L 157.570312,80.209366 L 159.750000,80.530451 L 161.929688,80.560307 L 164.109375,80.323196 L 166.289062,79.856539 L 168.468750,79.208508 L 170.648438,78.434236 L 172.828125,77.591992 L 175.007812,76.740807 L 177.187500,75.939483 L 179.367188,75.245156 L 181.546875,74.710022 L 183.726562,74.376993 L 185.906250,74.276134 L 188.085938,74.422994 L 190.265625,74.818941 L 192.445312,75.452769 L 194.625000,76.302067 L 196.804688,77.333381 L 198.984375,78.501366 L 201.164062,79.747939 L 203.343750,81.002848 L 205.523438,82.186599 L 207.703125,83.215294 L 209.882812,84.006303 L 212.062500,84.484078 L 214.242188,84.585365 L 216.421875,84.262999 L 218.601562,83.488323 L 220.781250,82.253109 L 222.960938,80.571178 L 225.140625,78.478606 L 227.320312,76.031551 L 229.500000,73.302438 L 231.679688,70.376058 L 233.859375,67.346275 L 236.039062,64.312902 L 238.218750,61.378314 L 240.398438,58.643835 L 242.578125,56.206298 L 244.757812,54.154775 L 246.937500,52.566931 L 249.117188,51.504879 L 251.296875,51.011457 L 253.476562,51.107738 L 255.656250,51.791638 L 257.835938,53.037720 L 260.015625,54.798602 L 262.195312,57.007631 L 264.375000,59.581958 L 266.554688,62.425822 L 268.734375,65.434759 L 270.914062,68.501111 L 273.093750,71.519876 L 275.273438,74.393313 L 277.453125,77.033903 L 279.632812,79.366570 L 281.812500,81.330744 L 283.992188,82.881894 L 286.171875,83.991981 L 288.351562,84.648876 L 290.531250,84.855229 L 292.710938,84.627331 L 294.890625,83.994704 L 297.070312,83.000325 L 299.250000,81.699974 L 301.429688,80.159654 L 303.609375,78.451720 L 305.789062,76.650936 L 307.968750,74.831253 L 310.148438,73.063472 L 312.328125,71.413063 L 314.507812,69.937788 L 316.687500,68.686019 L 318.867188,67.696241 L 321.046875,66.996992 L 323.226562,66.606611 L 325.406250,66.532750 L 327.585938,66.771920 L 329.765625,67.309538 L 331.945312,68.120895 L 334.125000,69.172859 L 336.304688,70.425533 L 338.484375,71.833046 L 340.664062,73.343480 L 342.843750,74.899031 L 345.023438,76.437739 L 347.203125,77.897205 L 349.382812,79.219130 L 351.562500,80.352410 L 353.742188,81.253736 L 355.921875,81.887255 L 358.101562,82.225419 L 360.281250,82.250948 L 362.460938,81.958324 L 364.640625,81.354320 L 366.820312,80.458291 L 369.000000,79.302175 L 371.179688,77.929154 L 373.359375,76.390620 L 375.539062,74.742147 L 377.718750,73.039356 L 379.898438,71.334411 L 382.078125,69.673652 L 384.257812,68.096457 L 386.437500,66.635050 L 388.617188,65.314596 L 390.796875,64.153012 L 392.976562,63.160643 L 395.156250,62.340335 L 397.335938,61.688245 L 399.515625,61.195247 L 401.695312,60.848040 L 403.875000,60.629216 L 406.054688,60.517422 L 408.234375,60.489360 L 410.414062,60.523281 L 412.593750,60.601684 L 414.773438,60.711886 L 416.953125,60.845514 L 419.132812,60.998742 L 421.312500,61.173674 L 423.492188,61.379801 L 425.671875,61.634651 L 427.851562,61.963640 L 430.031250,62.398888 L 432.210938,62.976224 L 434.390625,63.730779 L 436.570312,64.693384 L 438.750000,65.889043 L 440.929688,67.336521 L 443.109375,69.048087 L 445.289062,71.029361 L 447.468750,73.278635 L 449.648438,75.785078 L 451.828125,78.526317 L 454.007812,81.466425 L 456.187500,84.554771 L 458.367188,87.726181 L 460.546875,90.903081 L 462.726562,93.999258 L 464.906250,96.923773 L 467.085938,99.584216 L 469.265625,101.889607 L 471.445312,103.752892 L 473.625000,105.092791 L 475.804688,105.835521 L 477.984375,105.917213 L 480.164062,105.287356 L 482.343750,103.912900 L 484.523438,101.781521 L 486.703125,98.902423 L 488.882812,95.305430 L 491.062500,91.040612 L 493.242188,86.178435 L 495.421875,80.808653 L 497.601562,75.037745 L 499.781250,68.985855 L 501.960938,62.783007 L 504.140625,56.564264 L 506.320312,50.465320 L 508.500000,44.620197 L 510.679688,39.160369 L 512.859375,34.213185 L 515.039062,29.898813 L 517.218750,26.326375 L 519.398438,23.589960 L 521.578125,21.765049 L 523.757812,20.906106 L 525.937500,21.045781 L 528.117188,22.194978 L 530.296875,24.342621 L 532.476562,27.455027 L 534.656250,31.475846 L 536.835938,36.327234 L 539.015625,41.912207 L 541.195312,48.117610 L 543.375000,54.816468 L 545.554688,61.868922 L 547.734375,69.122969 L 549.914062,76.417186 L 552.093750,83.586030 L 554.273438,90.466644 L 556.453125,96.905252 L 558.632812,102.761547 L 560.812500,107.911310 L 562.992188,112.248937 L 565.171875,115.690499 L 567.351562,118.176505 L 569.531250,119.673780 L 571.710938,120.176270 L 573.890625,119.704443 L 576.070312,118.303191 L 578.250000,116.039345 L 580.429688,112.999878 L 582.609375,109.289480 L 584.789062,105.025836 L 586.968750,100.333931 L 589.148438,95.341464 L 591.328125,90.175136 L 593.507812,84.957486 L 595.687500,79.804744 L 597.867188,74.825268 L 600.046875,70.117699 L 602.226562,65.768818 L 604.406250,61.851109 L 606.585938,58.419850 L 608.765625,55.510604 L 610.945312,53.138538 L 613.125000,51.299684 L 615.304688,49.973175 L 617.484375,49.124274 L 619.664062,48.708357 L 621.843750,48.675079 L 624.023438,48.971807 L 626.203125,49.545838 L 628.382812,50.345440 L 630.562500,51.320593 L 632.742188,52.424724 L 634.921875,53.617615 L 637.101562,54.868219 L 639.281250,56.155893 L 641.460938,57.469460 L 643.640625,58.804770 L 645.820312,60.162443 "/>
<g id="matplotlib.axis1">
<g id="xtick1">
<text style="font-size: 12.000000; font-family: Verdana; font-style: Regular; fill: #000000;" x="81.000000" y="142.600000" >0.0</text>
</g>
<g id="xtick2">
<path style="fill: none; stroke: #000000; stroke-width: 0.500000; stroke-linejoin: miter; stroke-linecap: butt;  opacity: 1.000000; " d="M 201.600000,129.600000 L 201.600000,125.600000"/>
<path style="fill: none; stroke: #000000; stroke-width: 0.500000; stroke-linejoin: miter; stroke-linecap: butt;  opacity: 1.000000; " d="M 201.600000,18.400000 L 201.600000,14.400000"/>
<text style="font-size: 12.000000; font-family: Verdana; font-style: Regular; fill: #000000;" x="192.600000" y="142.600000" >0.2</text>
</g>
<g id="xtick3">
<path style="fill: none; stroke: #000000; stroke-width: 0.500000; stroke-linejoin: miter; stroke-linecap: butt;  opacity: 1.000000; " d="M 313.200000,129.600000 L 313.200000,125.600000"/>
<path style="fill: none; stroke: #000000; stroke-width: 0.500000; stroke-linejoin: miter; stroke-linecap: butt;  opacity: 1.000000; " d="M 313.200000,18.400000 L 313.200000,14.400000"/>
<text style="font-size: 12.000000; font-family: Verdana; font-style: Regular; fill: #000000;" x="303.700000" y="142.600000" >0.4</text>
</g>
<g id="xtick4">
<path style="fill: none; stroke: #000000; stroke-width: 0.500000; stroke-linejoin: miter; stroke-linecap: butt;  opacity: 1.000000; " d="M 424.800000,129.600000 L 424.800000,125.600000"/>
<path style="fill: none; stroke: #000000; stroke-width: 0.500000; stroke-linejoin: miter; stroke-linecap: butt;  opacity: 1.000000; " d="M 424.800000,18.400000 L 424.800000,14.400000"/>
<text style="font-size: 12.000000; font-family: Verdana; font-style: Regular; fill: #000000;" x="415.800000" y="142.600000" >0.6</text>
</g>
<g id="xtick5">
<path style="fill: none; stroke: #000000; stroke-width: 0.500000; stroke-linejoin: miter; stroke-linecap: butt;  opacity: 1.000000; " d="M 536.400000,129.600000 L 536.400000,125.600000"/>
<path style="fill: none; stroke: #000000; stroke-width: 0.500000; stroke-linejoin: miter; stroke-linecap: butt;  opacity: 1.000000; " d="M 536.400000,18.400000 L 536.400000,14.400000"/>
<text style="font-size: 12.000000; font-family: Verdana; font-style: Regular; fill: #000000;" x="527.400000" y="142.600000" >0.8</text>
</g>
<g id="xtick6">
<text style="font-size: 12.000000; font-family: Verdana; font-style: Regular; fill: #000000;" x="639.500000" y="142.600000" >1.0</text>
</g>
</g>
<g id="matplotlib.axis2">
</g>
</g>
</g>
</svg>
